<?xml version="1.0" encoding="UTF-8"?>
<svg width="415px" height="717px" viewBox="0 0 415 717" version="1.1" xmlns="http://www.w3.org/2000/svg" xmlns:xlink="http://www.w3.org/1999/xlink">
    <!-- Generator: Sketch 58 (84663) - https://sketch.com -->
    <title>pattern</title>
    <desc>Created with Sketch.</desc>
    <g id="Screens" stroke="none" stroke-width="1" fill="none" fill-rule="evenodd" opacity="0.131766183">
        <g id="Login-1" transform="translate(0.000000, -155.000000)" fill="#AF986E">
            <g id="pattern" transform="translate(-24.000000, 155.000000)">
                <path d="M154.359421,478.186359 C153.648027,477.131843 152.581001,476.428786 153.292329,475.72573 C160.761841,475.72573 169.298377,477.131843 176.412192,479.592473 C190.639754,483.810676 204.867315,488.028877 220.16197,489.786585 C225.852996,488.028877 232.611112,481.701507 234.033834,475.72573 C231.188323,468.343842 224.785903,464.82856 218.739179,461.313413 C218.383483,460.610357 219.094877,459.907302 220.16197,459.555841 C235.812323,459.555841 251.818303,463.422581 259.999143,477.483304 C260.710537,485.216787 252.174001,488.731935 248.617094,493.653193 C236.879346,500.33216 223.007483,497.168475 209.846945,496.113823 C190.995452,490.841103 172.14389,485.568248 154.359421,478.186359 Z M207.898146,374.587485 C208.25321,370.370541 210.38352,366.504953 212.868896,362.639364 C214.289147,360.530959 216.419459,358.071064 218.549769,355.962525 C224.940771,351.394092 231.686836,348.231351 239.142958,347.177147 C238.787894,345.068608 236.30252,345.068608 234.527272,344.717253 C229.556457,343.663051 224.940771,342.257358 219.970023,341.554512 C213.934085,340.148819 207.18802,338.39177 203.992521,332.769134 C202.217272,325.740803 210.028458,325.037958 213.934085,321.875217 C217.484649,321.523859 222.100333,320.469658 225.295835,322.226707 C223.165522,326.795141 214.999206,326.443651 216.774521,332.769134 C222.455397,338.743259 231.686836,339.094615 239.853083,340.500309 C245.178895,341.554512 250.859771,342.960203 254.410334,346.474302 L254.410334,347.528637 C243.758711,350.33989 231.686836,352.448429 225.650896,362.990854 C226.716019,363.693702 228.491334,363.34221 228.13627,364.747903 C227.426145,368.262002 227.781209,372.127588 224.585707,374.236127 C221.390207,377.750225 216.064395,378.101715 211.803706,376.696024 C210.38352,376.696024 208.963269,375.993176 207.898146,374.587485 Z M234.609886,175.326983 C233.93541,173.900733 233.93541,171.761355 234.947122,170.691733 C237.982192,167.839366 241.691671,166.769608 245.401216,166.056483 C243.377856,171.048363 242.028909,176.396605 238.319428,180.675225 C235.95877,180.318728 235.284359,177.10973 234.609886,175.326983 Z M12.166753,321.737272 C11.1113485,319.981481 10.4078144,317.523345 11.4631508,315.416314 C14.9810984,312.607072 19.9061846,313.309283 24.4795368,312.958176 C31.5154342,312.607072 39.9584681,315.767419 45.2353566,310.851145 C46.9942974,308.393009 48.401502,306.286112 48.0497019,303.125633 C46.9942974,297.858123 44.1799521,292.239506 38.9030636,289.78137 C31.163632,291.186058 23.0723322,292.59061 15.6847007,294.697641 C12.166753,294.697641 9.00060764,293.995298 5.83446005,292.941849 C5.13092593,292.239506 5.83446005,291.537163 6.18626229,291.186058 C11.4631508,289.78137 16.3883051,287.323234 21.6651936,286.269784 C27.2938821,285.216203 33.6261751,286.620889 37.8476591,282.055722 C42.4210112,278.544138 42.7728135,272.223178 41.3656067,267.306906 C33.2743729,270.116147 26.2384776,276.788345 17.4436415,278.544138 C13.925762,278.544138 9.70420992,278.544138 6.88986457,276.437107 L7.59346904,275.383657 C22.0169937,270.467385 36.0887182,255.016091 52.6229859,264.848771 C56.1409336,268.711592 54.733795,274.681314 53.3265904,279.246481 C52.6229859,282.406962 48.7533042,284.162753 46.6424952,286.620889 C48.7533042,288.376681 51.9194496,288.72792 54.0301927,291.186058 C57.5481403,295.04888 60.7142857,299.613913 60.7142857,305.23253 C60.3624857,309.095354 57.5481403,311.904728 55.085529,314.362864 C51.2158473,317.523345 45.5871588,316.821 40.3102703,317.172105 L24.1277367,317.172105 C22.7205981,318.225688 23.0723322,319.981481 23.4241323,321.386167 L27.6456844,328.058232 C26.9420821,329.46292 24.831339,328.760577 23.4241323,329.111682 C18.8508483,329.111682 14.9810984,325.951201 12.166753,321.737272 Z M121.43003,298.819981 C118.528195,286.16915 129.772793,278.086706 137.752889,268.949936 C140.291985,281.600765 146.821129,295.657274 141.380131,309.010943 C139.203771,310.065133 139.56651,313.93068 135.9392,313.93068 C127.959174,311.822164 125.782815,304.091072 121.43003,298.819981 Z M304.426989,535.911356 C304.426989,531.272057 306.899331,527.703447 309.018539,523.777898 C310.431279,521.636651 312.903621,519.138598 314.669627,516.997351 C321.027048,512.358187 328.090942,509.146384 335.508034,507.718885 C334.801632,505.934583 332.682492,505.934583 330.916484,505.220833 C325.9718,504.507084 321.027048,503.079586 316.082365,502.365838 C310.431279,500.581533 303.720587,499.154036 300.188708,493.087374 C298.775904,486.306963 306.546131,485.236271 310.078077,482.02447 C313.963225,482.02447 318.201506,480.597107 321.38025,482.381412 C319.61431,487.377518 311.490883,487.020576 313.256821,493.087374 C318.907908,499.154036 328.090942,499.867785 335.86117,501.295283 C341.159121,502.365838 346.810209,503.43653 350.695289,507.362079 L350.695289,508.432636 C340.099517,511.287495 328.090942,513.428742 322.086652,524.134704 C322.793056,524.491646 324.912196,524.491646 324.558994,525.919009 C323.85266,529.487752 323.85266,533.413303 320.673914,535.554414 C317.848371,539.12316 312.550419,539.479966 308.312137,538.052467 C306.899331,538.052467 305.486593,537.338719 304.426989,535.911356 Z M-150.006015,448.313485 C-151.776149,447.607423 -150.714062,445.841868 -150.360023,445.135805 C-119.20519,430.305965 -85.5721754,421.47872 -54.4173088,406.295847 C-46.6286259,403.471197 -38.1318632,401.35261 -30.3431117,399.234022 C-28.5729775,399.234022 -26.8028433,400.293384 -27.1568179,402.411837 C-33.8834464,413.35767 -46.6286259,417.59471 -55.4794296,427.481315 C-54.4173088,429.599767 -51.9390948,432.777582 -49.1068398,432.777582 L24.5318447,423.24414 C-12.6415043,384.051152 -48.044719,343.445904 -70.702823,297.544256 C-77.7834239,284.126806 -78.8455447,266.472315 -75.6592509,250.936413 C-67.870568,230.81017 -46.9826669,214.568072 -26.4488045,211.037227 C-15.4737592,213.15568 -3.43665956,212.44962 6.47619632,216.68666 C7.53831711,217.392855 8.24639689,218.452082 7.89235811,220.217503 C-11.9334909,226.2201 -32.1133122,243.87459 -35.653647,264.706895 C-41.3181569,295.778701 -19.368135,318.376561 -5.20686234,342.739709 C12.848786,370.280669 36.9229832,394.643952 60.9971803,419.0071 L67.015729,417.947875 C101.710864,413.35767 222.789861,402.411837 321.210754,393.584592 C315.192274,382.991924 308.819684,372.399257 302.801135,361.453424 C279.789059,327.556836 254.652741,293.660248 225.622116,261.52908 C216.771312,250.583248 209.336602,242.109168 199.777784,236.812767 C188.802739,240.696777 182.78419,251.289443 179.951936,260.822885 C176.765642,282.714416 197.299502,310.255376 172.163253,326.144444 C160.480194,345.211326 69.139902,320.495014 82.9471358,277.771178 C92.8600603,258.704298 111.977761,239.637415 134.281824,231.516365 C154.815686,218.09905 200.131825,220.217503 223.143902,229.397915 L221.72774,231.163335 C243.323723,240.34361 262.441424,260.116688 278.726938,278.124211 C308.111602,312.020933 335.726134,348.036109 359.092251,385.110512 C360.154303,386.875934 360.862385,388.288327 361.924506,389.700582 C396.619639,386.875934 425.650266,384.051152 442.997832,382.638894 C424.588145,358.628776 408.656738,334.265494 396.619639,308.136923 C389.89301,294.013278 389.18493,276.711953 393.079304,261.175915 C401.576069,241.049808 422.818011,225.513905 443.351873,222.68912 C453.972809,225.16074 466.364016,224.807708 476.276872,229.044748 C476.984954,230.10411 477.693034,231.163335 477.338926,232.928758 C457.513144,238.22516 436.625243,255.526483 432.730936,276.358788 C426.004305,306.724533 447.246247,330.381619 460.69944,354.744767 C466.009909,363.572012 472.028526,372.399257 478.755088,380.520307 C504.245445,379.814112 530.089776,380.520307 552.747812,388.641357 C555.934105,390.759944 561.598615,391.819169 562.306695,396.05621 C550.977677,398.174797 538.94058,396.762405 527.611562,397.468602 C518.406649,398.174797 507.431741,399.234022 495.040534,400.293384 C523.717187,433.483777 556.642187,464.555718 580.008302,499.864698 C615.76549,542.235501 549.561518,625.564582 476.276872,573.307307 C459.99136,565.539424 450.786582,559.536826 437.333323,546.825571 C437.333323,546.119376 436.979284,545.060151 437.333323,544.000924 C463.885734,555.299786 490.438213,586.018562 532.921963,578.603709 C543.543035,576.132091 552.747812,564.833229 555.580133,554.593591 C560.890535,548.237964 557.70424,539.410719 556.99616,531.642699 C549.91549,507.279551 532.213883,486.800278 515.574463,466.32114 C496.456696,445.841868 477.338926,425.009563 459.637385,403.471197 C434.50107,405.942817 405.470442,408.767465 374.669617,411.592247 C379.980152,420.066327 384.936582,428.540542 389.538969,437.367787 C391.309172,440.192435 390.247051,444.076445 393.079304,446.901227 C399.097855,481.857043 409.010779,518.578416 420.339797,554.240426 C423.526091,565.539424 430.960733,574.719699 431.314774,586.724757 L431.668815,588.137149 C430.960733,590.608767 426.712387,588.843344 424.588145,589.196377 C399.805935,525.287074 367.943055,471.97057 334.309974,415.476257 C246.864058,423.950337 150.92131,433.483777 82.2390538,440.89863 C95.3382743,455.022278 107.729413,469.145788 118.350351,484.328661 C127.201154,491.037453 131.449569,516.812993 131.449569,525.993269 C130.033407,576.838286 58.8729387,584.253139 23.1157515,560.949219 C6.83023732,553.887396 -9.4552105,547.531769 -22.9084697,535.173679 C-22.9084697,534.467483 -23.6165495,533.408256 -22.9084697,532.348896 C-13.703625,534.467483 -6.62295553,543.294729 1.87380938,547.178738 C28.7802593,556.359014 84.3632954,586.018562 95.3382743,539.410719 C100.648743,533.055091 97.1084085,524.227846 96.4003951,516.812993 C88.2576048,492.449711 69.847984,472.676768 52.85439,452.55066 C50.3761738,450.079042 48.2520008,447.607423 45.7737869,445.135805 C35.1527826,446.195032 25.9480043,447.607423 18.159255,448.313485 C-21.138267,452.55066 -59.3738053,458.20009 -99.733448,459.259318 C-104.33587,459.259318 -108.938257,461.730935 -113.54068,463.849523 C-126.639865,459.965513 -137.968918,453.96305 -150.006015,448.313485 Z M325.117267,282.575216 C327.591733,274.059382 330.066199,265.898447 333.247674,257.737514 C320.168335,237.867326 307.44243,217.642373 291.888555,198.836747 C283.404642,188.192056 273.860215,176.837566 262.548329,169.031533 L259.013348,167.25744 C255.83194,173.644146 254.417922,181.805214 247.347961,186.063064 C239.92456,188.192056 232.854599,184.998636 226.845153,181.095551 C223.310239,177.902131 221.542715,173.644146 221.18921,169.031533 C221.896221,164.418784 226.845153,163.354355 230.380133,161.935026 C235.682571,160.160935 241.692018,160.870598 247.701464,160.515699 L252.650465,152 C256.538882,152 260.073863,153.419194 263.608843,154.483756 C264.669358,154.83852 264.669358,155.548186 264.315854,156.257849 C262.548329,158.031942 261.487883,160.160935 260.780874,162.289792 L262.194825,163.354355 L261.487883,163.709119 C266.083311,166.547777 269.971795,168.676631 274.567224,171.16039 C297.191061,188.54682 313.451877,212.319959 326.177781,235.028803 C328.652247,237.867326 330.066199,241.415645 331.480219,244.608932 C333.247674,247.092823 334.661694,249.57658 335.722142,252.060336 C337.13616,249.22168 338.550111,246.38316 339.964131,243.544502 C344.206121,238.222225 349.155055,243.544502 354.457493,243.544502 C362.5879,247.447587 372.132329,250.286243 378.848784,258.092278 C372.132329,270.156296 366.829891,282.575216 364.355425,296.413327 L362.234396,298.18742 C349.155055,293.92957 337.13616,288.961922 325.117267,282.575216 Z" id="Fill-17" transform="translate(219.500000, 371.000000) rotate(90.000000) translate(-219.500000, -371.000000) "></path>
            </g>
        </g>
    </g>
</svg>