<svg xmlns="http://www.w3.org/2000/svg" width="446.064" height="313.067" viewBox="0 0 446.064 313.067"><g transform="translate(0 0)"><path d="M902.889,743.721c-2.9,11.026-13.041,17.916-13.041,17.916s-5.451-10.986-2.556-22.012,13.041-17.916,13.041-17.916S905.784,732.7,902.889,743.721Z" transform="translate(-544.672 -452.543)" fill="#3f3d56"/><path d="M902.785,756.8c-8.109,8.012-9.017,20.242-9.017,20.242s12.241-.759,20.35-8.771,9.017-20.242,9.017-20.242S910.895,748.783,902.785,756.8Z" transform="translate(-548.96 -467.95)" fill="#448ce0"/><path d="M187.443,649.343h15.272l37.634-14.727s26.726-10.909,24.544,9.818-6,48.543-6,48.543-12-5.454-18.545-3.818-2.182-33.271-2.182-33.271-53.452,25.635-58.361,22.362-6-26.181-6-26.181Z" transform="translate(-127.447 -399.874)" fill="#2f2e41"/><path d="M187.443,649.343h15.272l37.634-14.727s26.726-10.909,24.544,9.818-6,48.543-6,48.543-12-5.454-18.545-3.818-2.182-33.271-2.182-33.271-53.452,25.635-58.361,22.362-6-26.181-6-26.181Z" transform="translate(-127.447 -399.874)" opacity="0.1"/><path d="M245.4,558.82l18.482,26.555,43.089,36s39.816,9.272,34.362,15.817-38.725-6.545-38.725-6.545-49.634-36-51.27-38.725S231.7,563.558,231.7,563.558Z" transform="translate(-161.342 -357.177)" fill="#a0616a"/><path d="M245.4,558.82l18.482,26.555,43.089,36s39.816,9.272,34.362,15.817-38.725-6.545-38.725-6.545-49.634-36-51.27-38.725S231.7,563.558,231.7,563.558Z" transform="translate(-161.342 -357.177)" opacity="0.1"/><path d="M212.86,507.092l12,23.453S222.132,542,217.769,543.09s-22.908-14.181-22.908-14.181Z" transform="translate(-139.772 -326.892)" fill="#d0cde1"/><path d="M212.86,507.092l12,23.453S222.132,542,217.769,543.09s-22.908-14.181-22.908-14.181Z" transform="translate(-139.772 -326.892)" opacity="0.1"/><path d="M568.032,643.915l3.545,14.621a.913.913,0,0,1-.018.493L555.48,709.276a.913.913,0,0,1-1.777-.175l-2.224-19.574a.913.913,0,0,1,.039-.386l14.759-45.293a.913.913,0,0,1,1.755.068Z" transform="translate(-348.557 -406.589)" fill="#2f2e41"/><path d="M506.277,575.493l3.272,12.545-14.181,45.816L492.1,619.673Z" transform="translate(-288.106 -336.932)" fill="#f2f2f2"/><path d="M415.786,776.915c.545,1.636,56.724-.545,57.27-1.091a11.841,11.841,0,0,0,1.2-2.182c.513-1.091.982-2.182.982-2.182L473.055,753.8l-55.634-1.974s-1.391,14.967-1.674,21.817A16.38,16.38,0,0,0,415.786,776.915Z" transform="translate(-269.066 -470.175)" fill="#2f2e41"/><path d="M441.866,689.965l1.091,15.272H418.413V689.965Z" transform="translate(-244.967 -403.952)" opacity="0.1"/><path d="M378.648,701.765l.146-.029-.692,6.575H364.467v-6.546Z" transform="translate(-213.383 -410.843)" opacity="0.1"/><path d="M415.786,807.728c.545,1.636,56.724-.545,57.27-1.091a11.842,11.842,0,0,0,1.2-2.182H415.748A16.373,16.373,0,0,0,415.786,807.728Z" transform="translate(-269.066 -500.989)" opacity="0.1"/><circle cx="24.544" cy="24.544" r="24.544" transform="translate(56.724 123.475)" fill="#a0616a"/><path d="M201.3,452.234s-8.181,14.181-9.818,21.817-24.544-15.272-24.544-15.272l-3-7.909s21.544-10.09,19.908-18.272S201.3,452.234,201.3,452.234Z" transform="translate(-121.669 -282.397)" fill="#a0616a"/><path d="M227.62,584.722l22.363,29.453,53.452,39.816s38.725,8.181,30,14.181-33.817-5.454-33.817-5.454-54-28.908-65.451-40.907-32.726-32.18-32.726-32.18Z" transform="translate(-143.624 -372.342)" fill="#a0616a"/><path d="M123.669,690.446l6.545,10.363,39.062-12.289a30.713,30.713,0,0,1,25.571,3.085c6.818,4.3,11.181,11.113,1.364,21.2-19.635,20.181-32.726,9.272-32.726,9.272s-66,31.09-76.905,15.817S75.126,714.99,75.126,714.99,117.124,688.809,123.669,690.446Z" transform="translate(-69.672 -432.25)" fill="#2f2e41"/><path d="M308.708,775.154s17.454,11.454-3.273,16.908-36-2.182-36-2.182-18,0-18-9.272,6-10.363,6-10.363l18.545,2.727S298.345,766.973,308.708,775.154Z" transform="translate(-172.896 -480.96)" fill="#d0cde1"/><path d="M232.294,372.57a18.3,18.3,0,0,0,5.143,1.842c1.816.216,3.884-.418,4.744-2.032a6.38,6.38,0,0,0,.539-2.885c.066-3-.151-6.233-2.049-8.551-1.208-1.475-2.971-2.405-4.221-3.844a18.167,18.167,0,0,1-2.134-3.487c-2.432-4.567-6.032-8.956-11.036-10.273a23.932,23.932,0,0,0-6.442-.492l-12.6.178a21.938,21.938,0,0,0-6.062.652c-4.056,1.226-7.009,4.637-9.713,7.9a49.4,49.4,0,0,0-5.571,7.688,26.977,26.977,0,0,0-3.2,13.218,12.367,12.367,0,0,0,.453,3.5,19.409,19.409,0,0,0,1.375,3.02c2.363,4.641,3.766,10.439,1.1,14.916,4.623-1.888,9.2-4.364,12.246-8.319,1.364-1.769,2.434-3.84,4.252-5.138s4.78-1.411,5.947.494a5.33,5.33,0,0,1,.6,2.5,11.443,11.443,0,0,0,.689,4.213,3.157,3.157,0,0,0,3.43,1.957c2.375-.669,2.147-4.314,3.976-5.969,1.389-1.257,3.532-1.017,5.317-1.588a7.89,7.89,0,0,0,4.528-4.46c.676-1.516.666-5.481,1.945-6.3C227.161,370.271,230.807,371.907,232.294,372.57Z" transform="translate(-130.89 -230.724)" fill="#2f2e41"/><path d="M102.29,472.253a6.473,6.473,0,0,1,3.369.009c3.5.94,11.35,3.428,13.033,7.215,2.182,4.909,9.818,12.545,9.818,12.545s10.363,10.363,8.181,17.454-10.363,15.272-10.363,15.272,2.182,33.817-8.727,42.544S102.33,570.017,102.33,578.2s-33.817,33.816-40.362,18c0,0,3.273-29.453,2.182-39.816C63.075,546.168,64.649,482.443,102.29,472.253Z" transform="translate(-61.968 -306.367)" fill="#d0cde1"/><path d="M165.478,503.753s33.271,24.544,27.271,34.907c0,0-20.181,9.818-24.544,9.272S146.934,528.3,142.57,526.661,136.025,495.572,165.478,503.753Z" transform="translate(-107.663 -324.099)" fill="#d0cde1"/><circle cx="26.945" cy="26.945" r="26.945" transform="translate(179.519 71.489)" fill="#f2f2f2"/><path d="M883.643,180.8H732.649v-31.6H883.643Zm-150.329-.665H882.977V149.872H733.314Z" transform="translate(-454.63 -117.362)" fill="#3f3d56"/><rect width="150.328" height="30.93" transform="translate(267.709 38.164)" fill="#448ce0"/><circle cx="2.328" cy="2.328" r="2.328" transform="translate(170.352 3.991)" fill="#448ce0"/><circle cx="2.328" cy="2.328" r="2.328" transform="translate(178.334 3.991)" fill="#448ce0"/><circle cx="2.328" cy="2.328" r="2.328" transform="translate(186.316 3.991)" fill="#448ce0"/><path d="M742.522,254.642H462.487V72.386H742.523Zm-279.37-.665H741.857V73.051h-278.7Z" transform="translate(-296.459 -72.386)" fill="#3f3d56"/><rect width="279.37" height="0.665" transform="translate(166.361 10.089)" fill="#3f3d56"/><path d="M476.38,84.126a2.661,2.661,0,1,1,2.661-2.661A2.661,2.661,0,0,1,476.38,84.126Zm0-4.656a2,2,0,1,0,2,2,2,2,0,0,0-2-2Z" transform="translate(-303.035 -76.144)" fill="#3f3d56"/><path d="M495.635,84.126a2.661,2.661,0,1,1,2.661-2.661A2.661,2.661,0,0,1,495.635,84.126Zm0-4.656a2,2,0,1,0,2,2,2,2,0,0,0-2-2Z" transform="translate(-314.308 -76.144)" fill="#3f3d56"/><path d="M514.891,84.126a2.661,2.661,0,1,1,2.66-2.661,2.661,2.661,0,0,1-2.66,2.661Zm0-4.656a2,2,0,1,0,2,2,2,2,0,0,0-2-2Z" transform="translate(-325.582 -76.144)" fill="#3f3d56"/><rect width="0.665" height="171.76" transform="translate(253.739 10.421)" fill="#3f3d56"/><rect width="48.89" height="6.652" transform="translate(285.502 94.87)" fill="#f2f2f2"/><rect width="48.89" height="6.652" transform="translate(362.329 94.87)" fill="#f2f2f2"/><path d="M805.872,299.737H756.317V292.42h49.555Zm-48.89-.665h48.225v-5.986H756.982Z" transform="translate(-468.487 -201.209)" fill="#3f3d56"/><rect width="48.89" height="6.652" transform="translate(285.502 146.42)" fill="#f2f2f2"/><path d="M805.872,424.095H756.317v-7.317h49.555Zm-48.89-.665h48.225v-5.986H756.982Z" transform="translate(-468.487 -274.016)" fill="#3f3d56"/><rect width="125.717" height="6.652" transform="translate(285.669 119.979)" fill="#f2f2f2"/><path d="M883.1,361.915H756.718V354.6H883.1Zm-125.718-.665H882.435v-5.987H757.383Z" transform="translate(-468.721 -237.613)" fill="#3f3d56"/><path d="M991.2,299.737H941.651V292.42H991.2Zm-48.89-.665h48.225v-5.986H942.316Z" transform="translate(-576.994 -201.209)" fill="#3f3d56"/><path d="M532.391,280.562A27.359,27.359,0,1,1,559.75,253.2,27.359,27.359,0,0,1,532.391,280.562Zm0-53.889a26.53,26.53,0,1,0,26.53,26.53A26.53,26.53,0,0,0,532.391,226.673Z" transform="translate(-321.368 -162.231)" fill="#3f3d56"/><rect width="117.313" height="0.829" transform="translate(310.097 308.602)" fill="#3f3d56"/></g></svg>