<?xml version="1.0" standalone="no"?>
<!DOCTYPE svg PUBLIC "-//W3C//DTD SVG 20010904//EN"
 "http://www.w3.org/TR/2001/REC-SVG-20010904/DTD/svg10.dtd">
<svg version="1.0" xmlns="http://www.w3.org/2000/svg"
 width="92.000000pt" height="92.000000pt" viewBox="0 0 92.000000 92.000000"
 preserveAspectRatio="xMidYMid meet">
<metadata>
Created by potrace 1.11, written by Peter Selinger 2001-2013
</metadata>
<g transform="translate(0.000000,92.000000) scale(0.100000,-0.100000)"
fill="#000000" stroke="none">
<path d="M0 455 l0 -455 460 0 460 0 0 455 0 455 -460 0 -460 0 0 -455z m219
359 c25 -65 27 -86 6 -58 -13 18 -14 16 -15 -23 0 -24 3 -43 6 -43 4 0 26 15
49 34 23 19 61 45 85 57 39 20 45 21 69 8 25 -14 51 -63 39 -75 -4 -3 -16 4
-27 15 -12 12 -31 21 -43 21 -26 0 -103 -48 -140 -87 l-26 -28 15 -140 c8 -77
16 -141 18 -144 6 -5 92 52 139 93 45 39 41 56 -13 56 -49 0 -67 20 -55 61 5
18 18 38 30 45 18 13 24 12 47 -6 14 -11 31 -36 37 -56 23 -67 -6 -117 -110
-195 -68 -50 -70 -53 -70 -95 0 -24 2 -44 5 -44 3 0 23 11 45 25 39 25 84 32
106 17 18 -12 34 -49 28 -65 -4 -12 -10 -10 -29 9 -30 30 -50 30 -100 0 -33
-20 -42 -32 -51 -73 -8 -32 -12 -40 -13 -22 0 14 -4 29 -7 32 -4 3 -32 -16
-62 -43 -62 -55 -98 -64 -132 -30 -24 24 -26 70 -5 110 9 17 18 30 21 30 2 0
-2 -13 -11 -30 -21 -41 -19 -77 5 -90 26 -14 69 6 133 64 48 43 48 44 42 88
l-7 45 -41 -13 c-23 -7 -66 -20 -96 -29 -60 -18 -79 -15 -29 5 18 7 63 30 99
51 l65 38 -13 128 c-7 70 -14 134 -15 141 -2 9 -14 5 -37 -13 -53 -39 -91 -33
-110 18 -7 18 -7 34 0 49 9 21 9 21 6 2 -10 -49 28 -67 82 -40 49 26 52 35 43
137 -13 136 0 158 37 63z m181 -148 c0 -8 -10 -16 -22 -20 -32 -8 -38 -7 -38
5 0 5 4 8 9 4 5 -3 12 -1 16 5 4 6 11 7 17 4 8 -5 9 -1 5 10 -4 10 -3 15 3 11
6 -3 10 -12 10 -19z m-253 -178 c-3 -8 -6 -5 -6 6 -1 11 2 17 5 13 3 -3 4 -12
1 -19z m19 -41 c14 5 15 3 4 -16 -9 -18 -14 -20 -26 -10 -8 6 -14 21 -14 33 1
19 2 19 11 4 5 -10 16 -15 25 -11z m134 4 c15 -30 12 -33 -10 -11 -22 22 -25
30 -10 30 5 0 14 -9 20 -19z m30 15 c0 -3 -4 -8 -10 -11 -5 -3 -10 -1 -10 4 0
6 5 11 10 11 6 0 10 -2 10 -4z m193 -36 c3 -13 0 -20 -8 -20 -18 0 -28 17 -21
36 7 19 22 11 29 -16z m-23 -39 c0 -4 -18 -21 -39 -36 -22 -15 -41 -37 -43
-48 -2 -17 -9 -21 -27 -19 -32 3 -35 7 -22 30 6 12 18 18 28 16 11 -3 35 10
58 30 45 39 45 39 45 27z m-384 -52 c19 -22 19 -22 -3 -8 -13 8 -23 17 -23 21
0 12 6 9 26 -13z m424 -139 c0 -5 -7 -7 -15 -4 -8 4 -15 8 -15 10 0 2 7 4 15
4 8 0 15 -4 15 -10z m90 -10 c23 -44 -29 -80 -64 -44 -22 22 -20 31 2 11 23
-21 48 -22 56 -2 14 36 -24 61 -52 33 -8 -8 -12 -9 -12 -1 0 27 56 29 70 3z
m52 -47 c15 4 18 3 10 -5 -21 -21 -42 -1 -40 39 l1 38 4 -38 c4 -34 7 -38 25
-34z m165 50 c4 -9 1 -19 -5 -21 -9 -3 -9 -10 -1 -25 10 -22 10 -22 -6 -2 -14
17 -17 18 -25 5 -7 -11 -10 -7 -10 16 0 17 3 34 7 37 12 13 34 7 40 -10z m-72
-24 c9 -17 15 -33 12 -35 -2 -3 -11 9 -19 25 l-14 29 -13 -29 c-7 -17 -15 -28
-18 -26 -5 6 25 67 32 67 2 0 12 -14 20 -31z m-240 -31 c6 -4 0 -8 -12 -8 -16
0 -21 4 -16 15 3 9 8 12 12 8 3 -4 11 -11 16 -15z"/>
<path d="M345 560 c-4 -6 5 -10 20 -10 15 0 24 4 20 10 -3 6 -12 10 -20 10 -8
0 -17 -4 -20 -10z"/>
<path d="M812 189 c2 -6 8 -10 13 -10 5 0 11 4 13 10 2 6 -4 11 -13 11 -9 0
-15 -5 -13 -11z"/>
</g>
</svg>
